<svg width="1660" height="235" viewBox="0 0 1660 235" fill="none" xmlns="http://www.w3.org/2000/svg">
<g clip-path="url(#clip0_5_13)">
<path d="M132.5 114.6C144.3 116.8 154 122.7 161.6 132.3C169.2 141.9 173 152.9 173 165.3C173 176.5 170.2 186.4 164.6 195C159.2 203.4 151.3 210 140.9 214.8C130.5 219.6 118.2 222 104 222H13.7V12.6H100.1C114.3 12.6 126.5 14.9 136.7 19.5C147.1 24.1 154.9 30.5 160.1 38.7C165.5 46.9 168.2 56.2 168.2 66.6C168.2 78.8 164.9 89 158.3 97.2C151.9 105.4 143.3 111.2 132.5 114.6ZM55.7 99H94.1C104.1 99 111.8 96.8 117.2 92.4C122.6 87.8 125.3 81.3 125.3 72.9C125.3 64.5 122.6 58 117.2 53.4C111.8 48.8 104.1 46.5 94.1 46.5H55.7V99ZM98 187.8C108.2 187.8 116.1 185.4 121.7 180.6C127.5 175.8 130.4 169 130.4 160.2C130.4 151.2 127.4 144.2 121.4 139.2C115.4 134 107.3 131.4 97.1 131.4H55.7V187.8H98ZM342.973 135.3C342.973 141.3 342.573 146.7 341.773 151.5H220.273C221.273 163.5 225.473 172.9 232.873 179.7C240.273 186.5 249.373 189.9 260.173 189.9C275.773 189.9 286.873 183.2 293.473 169.8H338.773C333.973 185.8 324.773 199 311.173 209.4C297.573 219.6 280.873 224.7 261.073 224.7C245.073 224.7 230.673 221.2 217.873 214.2C205.273 207 195.373 196.9 188.173 183.9C181.173 170.9 177.673 155.9 177.673 138.9C177.673 121.7 181.173 106.6 188.173 93.6C195.173 80.6 204.973 70.6 217.573 63.6C230.173 56.6 244.673 53.1 261.073 53.1C276.873 53.1 290.973 56.5 303.373 63.3C315.973 70.1 325.673 79.8 332.473 92.4C339.473 104.8 342.973 119.1 342.973 135.3ZM299.473 123.3C299.273 112.5 295.373 103.9 287.773 97.5C280.173 90.9 270.873 87.6 259.873 87.6C249.473 87.6 240.673 90.8 233.473 97.2C226.473 103.4 222.173 112.1 220.573 123.3H299.473ZM404.53 90.3V170.7C404.53 176.3 405.83 180.4 408.43 183C411.23 185.4 415.83 186.6 422.23 186.6H441.73V222H415.33C379.93 222 362.23 204.8 362.23 170.4V90.3H342.43V55.8H362.23V14.7H404.53V55.8H441.73V90.3H404.53ZM443.138 138.3C443.138 121.5 446.438 106.6 453.038 93.6C459.838 80.6 468.938 70.6 480.338 63.6C491.938 56.6 504.838 53.1 519.038 53.1C531.438 53.1 542.238 55.6 551.438 60.6C560.838 65.6 568.338 71.9 573.938 79.5V55.8H616.238V222H573.938V197.7C568.538 205.5 561.038 212 551.438 217.2C542.038 222.2 531.138 224.7 518.738 224.7C504.738 224.7 491.938 221.1 480.338 213.9C468.938 206.7 459.838 196.6 453.038 183.6C446.438 170.4 443.138 155.3 443.138 138.3ZM573.938 138.9C573.938 128.7 571.938 120 567.938 112.8C563.938 105.4 558.538 99.8 551.738 96C544.938 92 537.638 90 529.838 90C522.038 90 514.838 91.9 508.238 95.7C501.638 99.5 496.238 105.1 492.038 112.5C488.038 119.7 486.038 128.3 486.038 138.3C486.038 148.3 488.038 157.1 492.038 164.7C496.238 172.1 501.638 177.8 508.238 181.8C515.038 185.8 522.238 187.8 529.838 187.8C537.638 187.8 544.938 185.9 551.738 182.1C558.538 178.1 563.938 172.5 567.938 165.3C571.938 157.9 573.938 149.1 573.938 138.9ZM629.059 117C629.059 96.4 633.659 78 642.859 61.8C652.259 45.4 664.959 32.7 680.959 23.7C697.159 14.5 715.259 9.89999 735.259 9.89999C758.659 9.89999 779.159 15.9 796.759 27.9C814.359 39.9 826.659 56.5 833.659 77.7H785.359C780.559 67.7 773.759 60.2 764.959 55.2C756.359 50.2 746.359 47.7 734.959 47.7C722.759 47.7 711.859 50.6 702.259 56.4C692.859 62 685.459 70 680.059 80.4C674.859 90.8 672.259 103 672.259 117C672.259 130.8 674.859 143 680.059 153.6C685.459 164 692.859 172.1 702.259 177.9C711.859 183.5 722.759 186.3 734.959 186.3C746.359 186.3 756.359 183.8 764.959 178.8C773.759 173.6 780.559 166 785.359 156H833.659C826.659 177.4 814.359 194.1 796.759 206.1C779.359 217.9 758.859 223.8 735.259 223.8C715.259 223.8 697.159 219.3 680.959 210.3C664.959 201.1 652.259 188.4 642.859 172.2C633.659 156 629.059 137.6 629.059 117ZM925.332 224.7C909.332 224.7 894.932 221.2 882.132 214.2C869.332 207 859.232 196.9 851.832 183.9C844.632 170.9 841.032 155.9 841.032 138.9C841.032 121.9 844.732 106.9 852.132 93.9C859.732 80.9 870.032 70.9 883.032 63.9C896.032 56.7 910.532 53.1 926.532 53.1C942.532 53.1 957.032 56.7 970.032 63.9C983.032 70.9 993.232 80.9 1000.63 93.9C1008.23 106.9 1012.03 121.9 1012.03 138.9C1012.03 155.9 1008.13 170.9 1000.33 183.9C992.732 196.9 982.332 207 969.132 214.2C956.132 221.2 941.532 224.7 925.332 224.7ZM925.332 188.1C932.932 188.1 940.032 186.3 946.632 182.7C953.432 178.9 958.832 173.3 962.832 165.9C966.832 158.5 968.832 149.5 968.832 138.9C968.832 123.1 964.632 111 956.232 102.6C948.032 94 937.932 89.7 925.932 89.7C913.932 89.7 903.832 94 895.632 102.6C887.632 111 883.632 123.1 883.632 138.9C883.632 154.7 887.532 166.9 895.332 175.5C903.332 183.9 913.332 188.1 925.332 188.1ZM1014.04 138.3C1014.04 121.5 1017.34 106.6 1023.94 93.6C1030.74 80.6 1039.94 70.6 1051.54 63.6C1063.14 56.6 1076.04 53.1 1090.24 53.1C1101.04 53.1 1111.34 55.5 1121.14 60.3C1130.94 64.9 1138.74 71.1 1144.54 78.9V-2.86102e-06H1187.14V222H1144.54V197.4C1139.34 205.6 1132.04 212.2 1122.64 217.2C1113.24 222.2 1102.34 224.7 1089.94 224.7C1075.94 224.7 1063.14 221.1 1051.54 213.9C1039.94 206.7 1030.74 196.6 1023.94 183.6C1017.34 170.4 1014.04 155.3 1014.04 138.3ZM1144.84 138.9C1144.84 128.7 1142.84 120 1138.84 112.8C1134.84 105.4 1129.44 99.8 1122.64 96C1115.84 92 1108.54 90 1100.74 90C1092.94 90 1085.74 91.9 1079.14 95.7C1072.54 99.5 1067.14 105.1 1062.94 112.5C1058.94 119.7 1056.94 128.3 1056.94 138.3C1056.94 148.3 1058.94 157.1 1062.94 164.7C1067.14 172.1 1072.54 177.8 1079.14 181.8C1085.94 185.8 1093.14 187.8 1100.74 187.8C1108.54 187.8 1115.84 185.9 1122.64 182.1C1129.44 178.1 1134.84 172.5 1138.84 165.3C1142.84 157.9 1144.84 149.1 1144.84 138.9ZM1364.66 135.3C1364.66 141.3 1364.26 146.7 1363.46 151.5H1241.96C1242.96 163.5 1247.16 172.9 1254.56 179.7C1261.96 186.5 1271.06 189.9 1281.86 189.9C1297.46 189.9 1308.56 183.2 1315.16 169.8H1360.46C1355.66 185.8 1346.46 199 1332.86 209.4C1319.26 219.6 1302.56 224.7 1282.76 224.7C1266.76 224.7 1252.36 221.2 1239.56 214.2C1226.96 207 1217.06 196.9 1209.86 183.9C1202.86 170.9 1199.36 155.9 1199.36 138.9C1199.36 121.7 1202.86 106.6 1209.86 93.6C1216.86 80.6 1226.66 70.6 1239.26 63.6C1251.86 56.6 1266.36 53.1 1282.76 53.1C1298.56 53.1 1312.66 56.5 1325.06 63.3C1337.66 70.1 1347.36 79.8 1354.16 92.4C1361.16 104.8 1364.66 119.1 1364.66 135.3ZM1321.16 123.3C1320.96 112.5 1317.06 103.9 1309.46 97.5C1301.86 90.9 1292.56 87.6 1281.56 87.6C1271.16 87.6 1262.36 90.8 1255.16 97.2C1248.16 103.4 1243.86 112.1 1242.26 123.3H1321.16Z" fill="white"/>
<circle cx="1542.67" cy="117" r="100" fill="#E62243"/>
<circle cx="1526" cy="117" r="100" fill="#EE7121"/>
<circle cx="1509.33" cy="117" r="100" fill="#F7A720"/>
<circle cx="1492.67" cy="117" r="100" fill="#32AA4F"/>
<circle cx="1476" cy="117" r="100" fill="#00AB9E"/>
</g>
<defs>
<clipPath id="clip0_5_13">
<rect width="1660" height="235" fill="white"/>
</clipPath>
</defs>
</svg>
